<svg xmlns="http://www.w3.org/2000/svg" viewBox="0 0 210.14 161.98">
  <title>logo</title>
  <g>
    <path d="M105.07,0c58,0,105.07,36.26,105.07,81s-47,81-105.07,81S0,125.72,0,81,47,0,105.07,0Z" style="fill: #4d61a7;fill-rule: evenodd"/>
    <path d="M105.07,19.7c47.15,0,85.37,27.44,85.37,61.29s-38.22,61.29-85.37,61.29S19.7,114.84,19.7,81,57.92,19.7,105.07,19.7Z" style="fill: #71bfd6;fill-rule: evenodd"/>
    <path d="M105.07,22c45.88,0,83.07,26.41,83.07,59S151,140,105.07,140,22,113.57,22,81s37.19-59,83.07-59Z" style="fill: #fff;fill-rule: evenodd"/>
    <path d="M118.68,27.69a29,29,0,0,1,3.89,2.51q-.52-4-1.19-8c-1.21-.16-2.42-.31-3.64-.44q.51,3,.94,6Zm30.78,43.4c.18,3.29.26,6.59.27,9.89q0,7.2-.56,14.37a.58.58,0,0,1-.51.53q-6.28.7-12.6,1.16a51.25,51.25,0,0,1-3.57,3.8c5.21-.34,10.41-.77,15.6-1.33a.58.58,0,0,1,.63.64c0,.42-.09.83-.13,1.25l.45-.05,3.13-.4c.05-.49.11-1,.15-1.48a.57.57,0,0,1,.51-.51c5.93-.74,11.84-1.65,17.7-2.86a99.69,99.69,0,0,0,17.37-4.92c.33-1.39.59-2.79.79-4.2a60.32,60.32,0,0,1-8.55,3.13,172.49,172.49,0,0,1-26.75,5.21.56.56,0,0,1-.47-.15.6.6,0,0,1-.18-.47q.51-6.84.5-13.72c0-4.57-.17-9.15-.5-13.71a.56.56,0,0,1,.18-.46.57.57,0,0,1,.47-.16c5.5.71,11,1.57,16.44,2.69,6.21,1.27,13.06,2.92,18.86,5.65-.2-1.41-.46-2.81-.8-4.2-2.21-.89-4.47-1.65-6.76-2.32A176.76,176.76,0,0,0,152.83,63a.58.58,0,0,1-.51-.55,167.89,167.89,0,0,0-3.17-19.8.56.56,0,0,1,.16-.55.6.6,0,0,1,.56-.14,110.32,110.32,0,0,1,19.52,7.54,69.83,69.83,0,0,1,13.43,8.7,55.65,55.65,0,0,0-6.3-8.79,100.31,100.31,0,0,0-19.4-8.88c-2.91-1-5.86-1.88-8.83-2.68a.57.57,0,0,1-.41-.41q-1.22-4.65-2.77-9.2c-1.41-.55-2.84-1.06-4.27-1.55q.54,1.5,1,3,1,3.06,1.91,6.16a.57.57,0,0,1-.13.56.6.6,0,0,1-.55.17,159.78,159.78,0,0,0-16.71-2.87,29.29,29.29,0,0,1,3,4,153.21,153.21,0,0,1,15.29,2.93.56.56,0,0,1,.42.42,159,159,0,0,1,3.56,20.79.59.59,0,0,1-.16.47.57.57,0,0,1-.47.17c-5-.55-10.05-1-15.08-1.3a28.4,28.4,0,0,1-1.19,3.47c2.75.17,5.49.37,8.24.61.81-.38,1.63-.75,2.46-1.1l0,0c2-.82,4.31-1,6,.57s1.62,4.26.91,6.39ZM74.07,97q-6.3-.47-12.58-1.15a.59.59,0,0,1-.51-.54q-.57-7.17-.56-14.37c0-3.29.09-6.59.26-9.88-.7-2.13-.84-4.72.91-6.4s4-1.39,6-.57l.05,0c.82.35,1.65.72,2.46,1.1,2.74-.23,5.49-.44,8.23-.61a30.15,30.15,0,0,1-1.18-3.47c-5,.33-10.06.75-15.08,1.3a.57.57,0,0,1-.47-.17.59.59,0,0,1-.16-.47A162.41,162.41,0,0,1,65,41a.58.58,0,0,1,.44-.43,152.79,152.79,0,0,1,15.27-2.92,29.86,29.86,0,0,1,3-4A159.41,159.41,0,0,0,67,36.6a.58.58,0,0,1-.55-.17.6.6,0,0,1-.14-.56c.88-3.09,1.86-6.15,3-9.16-1.44.49-2.86,1-4.28,1.55l-.1.31c-1,2.93-1.88,5.9-2.67,8.89a.54.54,0,0,1-.41.41,116.47,116.47,0,0,0-22.68,8.49c-1.89,1-3.75,2-5.56,3.08a56.16,56.16,0,0,0-6.29,8.78C35,51.76,44.8,47.11,54.16,43.9q3-1,6.12-1.92a.54.54,0,0,1,.55.14.58.58,0,0,1,.17.55A165.71,165.71,0,0,0,57.82,62.5a.59.59,0,0,1-.51.52c-5.93.73-11.84,1.64-17.7,2.85A98.85,98.85,0,0,0,22.24,70.8c-.33,1.38-.59,2.78-.79,4.19A59.06,59.06,0,0,1,30,71.87a172.41,172.41,0,0,1,26.76-5.22.59.59,0,0,1,.47.16.57.57,0,0,1,.17.46q-.49,6.86-.49,13.71t.5,13.72a.6.6,0,0,1-.18.47.58.58,0,0,1-.47.15c-5.51-.7-11-1.56-16.44-2.68C34.09,91.36,27.24,89.71,21.45,87c.2,1.41.46,2.81.79,4.2,2.22.89,4.48,1.65,6.77,2.32A178,178,0,0,0,57.32,99a.57.57,0,0,1,.5.52L58,101l3.13.4.46.05c-.05-.42-.09-.83-.14-1.25a.59.59,0,0,1,.64-.64c5.18.56,10.38,1,15.58,1.32A51.23,51.23,0,0,1,74.07,97ZM87.57,30.2a29,29,0,0,1,3.89-2.51c.29-2,.6-4,.94-6-1.22.13-2.43.27-3.64.44q-.66,4-1.19,8.05ZM155.47,122a111.09,111.09,0,0,0,15.5-6.35c1.89-1,3.75-2,5.57-3.09a56.63,56.63,0,0,0,6.29-8.78c-6.68,5.63-14.92,9.83-23,12.92-1.42,1.79-2.83,3.6-4.36,5.3Zm-8.8,6.87a42.27,42.27,0,0,1-4.29,1.93q-.72,2.26-1.55,4.5c1.44-.49,2.86-1,4.28-1.55l.11-.32q.76-2.27,1.45-4.56ZM122,136c-1.22.22-2.43.42-3.65.62-.19,1.23-.39,2.47-.6,3.71,1.22-.14,2.43-.28,3.64-.45.21-1.29.42-2.58.61-3.88Zm-12.43-6.51c.57-1.21,1.15-2.41,1.77-3.59l-1.81.05v3.54Zm-8.94,0V125.9l-1.81-.05c.61,1.18,1.2,2.38,1.77,3.59Zm-8.82,7.13c-1.22-.2-2.43-.4-3.64-.62.19,1.3.39,2.59.6,3.88,1.21.17,2.43.31,3.64.45-.21-1.24-.41-2.48-.6-3.71Zm-28.32-7.73c.49,1.64,1,3.27,1.55,4.88,1.42.55,2.84,1.07,4.28,1.55-.37-1-.72-2-1.06-3-.17-.49-.33-1-.49-1.48a42.18,42.18,0,0,1-4.28-1.94ZM54.66,122c-1.53-1.7-2.93-3.51-4.36-5.3a101.37,101.37,0,0,1-9.55-4.21,70.48,70.48,0,0,1-13.44-8.72,56.66,56.66,0,0,0,6.28,8.79A101,101,0,0,0,53,121.42l1.63.55ZM121,112a33.7,33.7,0,0,1,3.74-3.23l.12-1.89c-1.19.77-2.41,1.5-3.66,2.18-.06,1-.13,2-.2,2.94Zm-35.77-5.11c0,.63.07,1.25.11,1.88A32.91,32.91,0,0,1,89.11,112c-.07-1-.14-2-.2-2.94-1.24-.69-2.46-1.41-3.65-2.18Z" style="fill: #71bfd6;fill-rule: evenodd"/>
    <path d="M114.37,82.18a29.77,29.77,0,0,1-18.6,0,62,62,0,0,1,9.3,14,62,62,0,0,1,9.3-14Z" style="fill: #71bfd6;fill-rule: evenodd"/>
    <path d="M110.09,133.66V140c1.14,0,2.28-.11,3.4-.19v-6.63c45.91-6.75,33.62-14,55.7-31.47,1.62-.61.1-2.73-1.22-1.71-27.8,8.13-42.15-3.08-57.88,33.68Zm-3.4,6.42h-3.24V111.31C80.72,104.16,70.93,91.54,64.1,70.62c-1-2.94-.08-4.82,3.06-3.54,19.63,8.42,31.58,20.38,37.91,39.4h0c6.33-19,18.28-31,37.9-39.4,3.15-1.28,4.1.6,3.07,3.54-6.83,20.92-16.62,33.54-39.36,40.69v28.77ZM100,140c-1.13,0-2.27-.11-3.39-.19v-6.63c-45.9-6.75-33.61-14-55.69-31.47-1.62-.61-.11-2.73,1.22-1.71C70,108.11,84.31,96.9,100,133.66V140Z" style="fill: #66b269;fill-rule: evenodd"/>
    <path d="M44.44,32.89l2.64-1.52L43,24.16l3.26-1.86,4.13,7.21L53,28l-5.46-9.53L39,23.36l5.45,9.53ZM63.3,23.57a5.71,5.71,0,1,0-4-10.71,5.71,5.71,0,1,0,4,10.71ZM62.37,21a2.85,2.85,0,0,1-3.67-1.8,2.81,2.81,0,0,1,1.57-3.75A2.86,2.86,0,0,1,64,17.23,2.81,2.81,0,0,1,62.37,21Zm12.18-1.34c2.09-.43,3.26-2,1.9-8.61l-.09-.41,2.51-.52,1.68,8.14,3-.62L81.31,6.88,73,8.59l.31,1.49c1.35,6.51.64,7.11-.21,7.29-.13,0-.56.08-.7.08l.27,2.33a6.7,6.7,0,0,0,1.84-.13Zm14.71-2.87,3-.4L90.87,5.49l-3,.4,1.42,10.89Zm14.09-.8a5.54,5.54,0,0,0,4.82-2.56l-2.32-1.59a3,3,0,0,1-2.46,1.38,2.73,2.73,0,0,1-2.67-2.89,2.73,2.73,0,0,1,2.57-3,2.94,2.94,0,0,1,2.43,1.22l2.2-1.76a5.32,5.32,0,0,0-4.65-2.24,5.65,5.65,0,0,0-5.69,5.82,5.58,5.58,0,0,0,5.77,5.6Zm9.94,0,4.84.44c2.67.25,4.52-1,4.74-3.37s-1.58-3.89-4.2-4.14L117,8.77l.32-3.44-3-.28-1,10.94Zm3.27-2.27.23-2.58,1.6.15c1,.09,1.53.65,1.46,1.41s-.72,1.26-1.72,1.17l-1.57-.15Zm11,4,3,.73.68-2.76,1.38-.93,1.7,4.62,3.55.87-2.67-7.1,5.16-3.59-3.5-.87-4.74,3.42,1.07-4.32-3-.73-2.63,10.66Zm14.71,3.95,2.66,1,6.14-4.31-2.16,5.79,2.82,1.06,3.84-10.29-2.66-1-6.14,4.31,2.16-5.79-2.82-1.06-3.84,10.29Zm14.56,6.18,2.46,1.41L166,26,163,31.32l2.62,1.5L171,23.29l-2.46-1.41-6.76,3.25,3.07-5.36-2.61-1.5-5.46,9.53Zm10.27-7.59a2.64,2.64,0,0,0,3.61-.7l-1.3-1.08a1.12,1.12,0,0,1-1.92-1.1l-1.59-.57a2.62,2.62,0,0,0,1.2,3.45Z" style="fill: #fff343"/>
    <path d="M7.83,97.16l.72,2.22,3.07-1,.92,2.84-3.08,1,.72,2.22,8.09-2.55-.72-2.22-3,1-.91-2.84,3-1-.71-2.22L7.83,97.16Zm3.6,9.77,1.18,2.16,1.62-.19,1.56,2.85-1,1.25,1.2,2.2,5.8-7.17-1.08-2-9.24.87Zm4.74,1.71,2.58-.3-1.67,2-.91-1.66Zm4.07,14.69,1.22,1.55,3.14-2.06-.59-.75,5.09-3.89-1.44-1.84-5.09,3.89L20.8,118l5.09-3.89-1.44-1.84-6.71,5.13,3.85,4.94-1.35,1Zm4.84,2.61,1.65,1.69,6.1-5.84-1.64-1.68-6.11,5.83Zm7.39,6.9a4.48,4.48,0,0,0,6.35-.45,4.34,4.34,0,0,0-.68-6.24,4.46,4.46,0,0,0-6.34.45,4.33,4.33,0,0,0,.67,6.24Zm1.38-1.6a2.15,2.15,0,0,1-.2-3.11,2.18,2.18,0,0,1,3.12-.38,2.28,2.28,0,0,1-2.92,3.49Zm5,6,2,1.24,1.71-2.71,2.56,1.58-1.71,2.71,2,1.23,4.49-7.12-2-1.24-1.68,2.67-2.57-1.58,1.69-2.67-2-1.23-4.49,7.12Zm9,5.42,2.24,1,1.19-1.1,3,1.37-.08,1.62,2.28,1.06.37-9.17-2.05-1-6.91,6.14Zm4.84-1.41,1.89-1.76-.17,2.56-1.72-.8ZM59.45,148c1.54.57,3,0,4.81-4.78l.11-.31,1.85.7L64,149.5l2.2.83,3-7.86-6.1-2.28-.41,1.09c-1.83,4.75-2.54,4.85-3.16,4.61a4.37,4.37,0,0,1-.49-.23l-.79,1.61a5.47,5.47,0,0,0,1.25.68Zm10,3.31,3.64.91c2,.5,3.58-.24,4-2s-.74-3.13-2.72-3.62l-1.24-.31.65-2.56-2.28-.57-2.07,8.15Zm2.76-1.33.49-1.92,1.2.3c.74.18,1.09.67,1,1.24s-.7.86-1.45.68l-1.19-.3Zm7.09,3.68,2.32.37.52-3.15,3,.48-.52,3.15,2.32.37,1.36-8.29L86,146.17l-.51,3.1-3-.48.51-3.1-2.32-.37-1.36,8.29Zm11.07,1.65,2.18.2,3.72-4.4-.45,4.71,2.32.21.8-8.36-2.19-.2-3.72,4.4.45-4.71-2.32-.21-.79,8.36Zm11.25.89,2.2-.05,3.16-4.81.12,4.73,2.33-.06-.21-8.39-2.19.05-3.17,4.8-.12-4.72-2.33.06.21,8.39Zm3.76-9a2,2,0,0,0,2.1-1.89l-1.29-.2c-.15.44-.39.73-.85.75s-.7-.28-.86-.7l-1.28.25a2,2,0,0,0,2.18,1.79Zm16.2,8c1.3-.17,2-.88,2.58-2.46l2.45-6.77-2.53.32-1.3,4.14-2.42-3.67-2.6.33,4.1,5.74a1,1,0,0,1-.69.45,1.8,1.8,0,0,1-1-.17l-.69,1.79a3.91,3.91,0,0,0,2.09.3Zm8.8-1.41,2.28-.55-.76-3.1,2.93-.71.77,3.1,2.28-.56-2-8.16-2.28.56.75,3.05-2.93.71-.75-3-2.29.55,2,8.16ZM141.32,151l2.27-.64-2.35-8.08-2.27.65,2.35,8.07Zm5.61-1.75,4.11-1.49c1.9-.69,2.71-1.92,2.21-3.27a2.06,2.06,0,0,0-2.3-1.37,1.94,1.94,0,0,0,.58-2.21,1.88,1.88,0,0,0-1-1.11,3.17,3.17,0,0,0-2.43.08L144,141.33l2.92,7.88Zm1.5-2.54-.54-1.45,1.69-.61c.74-.27,1.19-.11,1.34.32s-.11.88-.78,1.12l-1.71.62Zm-1.1-3-.52-1.39,1.44-.52c.66-.24,1.09-.11,1.25.32s-.11.84-.78,1.09l-1.39.5Zm9.51,1.67,6.12-3.13-.92-1.76-4,2.07-.62-1.18,3.62-1.85-.85-1.63-3.62,1.85-.59-1.13,4-2L159,134.8l-6.07,3.1,3.9,7.46Zm8.92-4.6,2-1.25-1.3-2,1-.62c1.78-1.12,2.51-2.82,1.43-4.49s-2.78-1.77-4.59-.63l-3.07,1.94,4.57,7.08Zm-.31-4.81-1.21-1.88.93-.58c.71-.45,1.35-.4,1.74.2a1.14,1.14,0,0,1-.52,1.66l-.94.6Zm12.11-3a4.24,4.24,0,0,0,1.82-3.77l-2.18.07a2.3,2.3,0,0,1-.89,2,2.12,2.12,0,0,1-3-.57,2.08,2.08,0,0,1,.23-3,2.32,2.32,0,0,1,2.08-.35l.56-2.08a4.13,4.13,0,0,0-3.92.73,4.28,4.28,0,0,0-.87,6.16,4.35,4.35,0,0,0,6.16.84Zm5-4.45,1.54-1.55L183,121.28l3.41,3.3,1.63-1.64L182,117.06l-1.54,1.55,1.12,5.64-3.42-3.31-1.63,1.64,6.07,5.88Zm8.91-9.83,1.34-1.92-5.29-3.61L189,111l-1.7-1.16-4.23,6.06,1.7,1.16,1.44-2.07,5.29,3.61Zm4.38-6.51,3.27-6-1.76-.94-2.17,4-1.18-.63L196,105l-1.63-.87-1.94,3.55-1.13-.61,2.14-3.92-1.76-.94-3.25,5.95,7.47,4ZM201,101.27l.68-2.23-6.15-1.84.74-2.41-2-.6-2.16,7.06,2,.59.74-2.41,6.15,1.84Z" style="fill: #fff343"/>
    <path d="M130.79,54.1a25.72,25.72,0,1,1-25.72-25.72A25.72,25.72,0,0,1,130.79,54.1Z" style="fill: #4d61a7"/>
    <path d="M128.88,54.1a23.81,23.81,0,1,1-23.81-23.81A23.81,23.81,0,0,1,128.88,54.1Z" style="fill: #71bfd6"/>
    <path d="M94.18,33.39a2.15,2.15,0,0,1,.47-1.19c.69-.89,2.48-1.19,3.54-1.71a1.46,1.46,0,0,1,.37-.12c.9-.17,1.93-.35,2.83-.43a2,2,0,0,1,1.35.3c.64,0,1.27,0,1.91,0a5,5,0,0,1,2.12.44c1-.05,2.17.19,2.3,1.4s-.82,1.59-1.71,1.78l-.45.09a1.86,1.86,0,0,1-1.31,1,1.78,1.78,0,0,1-1.19.62,9.76,9.76,0,0,0-1.72.23,5.49,5.49,0,0,1-1.93.42,2.33,2.33,0,0,0-.69.47,3.09,3.09,0,0,1-3.32.72,1.75,1.75,0,0,1-.76-.57,2,2,0,0,1-.65.27,2.24,2.24,0,0,1-.23.34,1.42,1.42,0,0,1,0,.58,1.42,1.42,0,0,1,.29,1.09,1.49,1.49,0,0,1,.49.87c.21,1.23-.94,1.82-1.85,2.22a1.88,1.88,0,0,1-1.11.14,1.6,1.6,0,0,1-.27.25l-.25.17-.57.38a2.84,2.84,0,0,0-.39.28,1.86,1.86,0,0,1-1.62.79,5.53,5.53,0,0,1-.92.77,3.8,3.8,0,0,0-.64.54,6.83,6.83,0,0,1-1.39,2.21,2.9,2.9,0,0,1-1.47,1c-.23.07-.45.09-.66.14h0a1.82,1.82,0,0,1-.68.59l0,.09a1.74,1.74,0,0,1,.52,2.06,1.64,1.64,0,0,1,.36.83,2.11,2.11,0,0,1,.45-.18,1.6,1.6,0,0,1,1.23.19,1.73,1.73,0,0,1,.72.56h.09a1.43,1.43,0,0,1,1.29-.08,1.31,1.31,0,0,1,.84,1.08,2.24,2.24,0,0,1,.52.7,2.71,2.71,0,0,1,2.38,1.72,5.4,5.4,0,0,1,.37.84,1.88,1.88,0,0,1,.34.35,1.87,1.87,0,0,1,1.14.75,3.12,3.12,0,0,1,2.11,1c.76.61,1.53.95,1.87,2,.42,1.27-.55,2.45-1.27,3.4a3.83,3.83,0,0,0,.1.45,2.57,2.57,0,0,1,0,1.6,2.54,2.54,0,0,1-1.9,1.88,3.42,3.42,0,0,1-.83,1.82c-.22.28-.39.53-.57.73a1.6,1.6,0,0,1-.32.71,1.54,1.54,0,0,1,.31.56c.19.07.4.14.58.22l.29.1a1.53,1.53,0,0,1,.1,2.88c-1.25.56-3.12-.54-4.15-1.21a8.47,8.47,0,0,1-2.23-2.24,5.15,5.15,0,0,1-1.47-2.81c-.17-.82-.31-1.65-.5-2.47-.06-.28-.18-1.27-.29-1.59a4.12,4.12,0,0,1-2.47-3.2A2.61,2.61,0,0,0,83.12,61a2,2,0,0,1-.35-1.39,1.65,1.65,0,0,1-.39-.58,2.41,2.41,0,0,1,.53-2.29l0,0a3.12,3.12,0,0,1-1.49-2.13,1.45,1.45,0,0,1-.25-.36c-1-.48-1-2-1.15-3a1.09,1.09,0,0,1,0-.36,25.11,25.11,0,0,1,7.08-14.49,1,1,0,0,1,.3-.23,2.92,2.92,0,0,1,1.28-.44,17.17,17.17,0,0,0,1.71-.76,3,3,0,0,1,1.64-.47c.34-.53.94-.64,1.52-.91a1.94,1.94,0,0,1,.6-.17Zm13.16,6.55a1.41,1.41,0,0,1,0-.29c.13-1.34,1.58-1.48,2.62-1.54a4.91,4.91,0,0,0,.59-.61,1.6,1.6,0,0,1-.43-1.08,2.2,2.2,0,0,1,1.81-2c.22-.06.47-.07.67-.12,1-1.41,2.14-1.18,3.54-.69,1.07.37,2.33.52,2.8,1.65a1.85,1.85,0,0,1,1.69.26,9.85,9.85,0,0,0,1.6.39,1.38,1.38,0,0,1,.72.39A25.14,25.14,0,0,1,130.3,54.1c0,.62,0,1.23-.07,1.84a1.42,1.42,0,0,1-2.81.12c-.08-.5-.12-1-.16-1.52,0-.29,0-.86-.07-1.35h0a2.39,2.39,0,0,1-.21.34,5.13,5.13,0,0,1-.27,2.67,4.91,4.91,0,0,1-.63,1.54,13.15,13.15,0,0,1-1.7,2,8,8,0,0,0-.23,2.31,3.89,3.89,0,0,1-1.57,3.58,1.23,1.23,0,0,0-.18.37,2.6,2.6,0,0,1-1.28,2.31l0,.06c-.27,1-1.6,1.66-2.15,2.42-.7,1-1.6,1.08-2.68,1.26-.73.13-1.4.25-2-.4A1.6,1.6,0,0,1,114,70a3,3,0,0,1-.93-2.75c0-.12-.14-.26-.19-.37a4.46,4.46,0,0,1-.41-1.16,3.4,3.4,0,0,1,.44-2.18c.1-.18.26-.41.38-.62a2.41,2.41,0,0,1-.43-1.72c-.1-.08-.25-.17-.32-.22a1.71,1.71,0,0,1-.71-.92,1.94,1.94,0,0,1,.12-1.47,1.46,1.46,0,0,1-1.11-.86l-.3.09a2.13,2.13,0,0,1-2.28.45h0c-1.23.8-2,.38-2.93-.43a2.27,2.27,0,0,1-1.58-1.19,8.94,8.94,0,0,1-.45-1.27,2.39,2.39,0,0,1-1.11-2.08,2.34,2.34,0,0,1,.26-2.28l.06-.12c0-.06,0-.12-.07-.17-.56-1.3.11-1.74.55-2.72a3.71,3.71,0,0,1,2.16-2.35,2.91,2.91,0,0,1,.79-1.32,3,3,0,0,1-.32-1.86,3.27,3.27,0,0,0,0-.54,1.86,1.86,0,0,1,.41-1.3,1.88,1.88,0,0,1,1.25-.67Z" style="fill: #4d61a7;fill-rule: evenodd"/>
    <path d="M95.47,60.57c-.84-.67-1-.8-1.63-.55s-.54.09-.62-.41a.52.52,0,0,0-1-.26c-.38.42-.67.21-.38-.2s.05-1-.37-.46-.71,1-.88.62.71-.75.8-1.09,0-.46-.3-1-.79-1.13-1.2-.84a.75.75,0,0,1-1.09-.5.84.84,0,0,0-.54-.8c-.33-.12,0-.92-.29-.62s-.08.29-.58.16-.55,0-.88-.21-.46-.71-.54-.33-.33,1.21-.33.67.33-1.05,0-1a2,2,0,0,0-1.05,1.13c-.12.46-.2-.17-.5-.05a.56.56,0,0,1-.75-.62c.09-.55.3-1.51,0-1.59s-.72.4-.51-.24.57-1.46.33-1.57-1.06,1.75-1.06,1,.77-3.9,1.1-3.64.24-.08.74-.44,1.16,0,1.79-.84a6.17,6.17,0,0,0,1.15-1.74,2.55,2.55,0,0,1,1.18-1.3c.58-.41.81-.66.82-.8a1.53,1.53,0,0,1,.65-.74c.32-.16.57-.1.37.2s.06.48.41,0,2-1.34,1.42-1.11-1.12.33-1,.15.69-.57.4-.58-.68.19-.89.19.07-.43.47-.68a5,5,0,0,1,1.63-.48c.47-.06.62-.19.38.2s.24.88.7.68,1.36-.62.89-.78-1.16-.16-.86-.4.75-1,.34-.81-.81,0-.6-.32.87-1.18.19-1-.84.28-1,.14.76-.58.38-.55-.5-.33-.94,0-.74.27-1.09.49a1.09,1.09,0,0,0-.55.79c0,.17-.06.2-.47.47s-1,.57-1,.9-.88.83-.72.53.48-.76.15-.69-.75-.17-.3-.64a10,10,0,0,1,1.64-1.24c.38-.24,1.19-.84.92-.52s0,.28.41,0,.54-.57.22-.46,0-.08.22-.28.83-.43.66-.23-.26.6,0,.33.4-.57.44-.3.53.74.85.55-.18-.58.34-.44.42,0,.56-.2-.31-.21-.1-.4.45-.33.71-.2.7-.13.58-.27a1.79,1.79,0,0,0-.72-.34c-.3-.1-.07-.47-.47-.29s-1,.3-1,.56.52.26.22.43-.35,0-.61.18-.57.3-.38.1.13-.37-.27-.12-.65.15-.48,0,.22-.28-.61.18a21,21,0,0,1-2.14.94s-.24-.11-.82.23A23.75,23.75,0,0,0,81.45,51c.19,1.53.23,2.13.51,1.8s.41.1.46.56.41.14.41.83,1,1.61,1,1.11.55-.42.6.09-.23.46,0,.92.1.6-.32,1.2-.59,1-.09,1.2,0,.92.32,1.47A4,4,0,0,1,85,62a2.72,2.72,0,0,0,1.65,2.17c1,.32.87,1.56,1.1,2.58s.28,1.38.51,2.49a3.79,3.79,0,0,0,1.15,2.17,7,7,0,0,0,1.93,2c1.15.74,2.39,1.29,2.8,1.11s-.3-.35-.3-.35c-.54-.3-1.58-.46-1.45-1s-.84-.62-.63-1-.54-.84-.12-.79.41,0,.66-.25-.37-1,.09-.84.2.17.83-.63.62-1.09.33-1.34.09-1,.88-1a1.15,1.15,0,0,0,1.29-1c.21-.63-.63-1.55,0-2.43s1.25-1.63,1.08-2.13-.58-.63-1.41-1.3Zm29-15.36c-.46-.17-.75-.33-.71-.92s-.5-1-.92-1.51.43-.6.84-.33c.58.38.08.67.45,1s.8.59.42.71-.08.3.25.63.13.59-.33.42Zm-2.49-7.9a9.08,9.08,0,0,1-2-.55c-.72-.42-.71.08-1.29.21s-.84-.42-1-1-.92-.63-2-1-1.46-.5-1.92.16-1,.55-1.46.67-1,.51-.66.8.62.63,1.12.42.67.12,1,.33.5.46.67,0,.42-.41,0-.71-.54-.46.13-.54.5-.5.87-.29-.25.46.08.83,1.8.34,1.42.63-1.21,0-1.16.59,0,.54-.71.46-2,.08-2.09-.3-.5-.79-.5-.29-.33.38-.79.59-.83,1.13-1.62,1.17-1.79.17-1.21.42.58.29.58.88,0,.58-.75.54-1.71-.21-1.67.46-.33,1.84.42,2,2.25.12,2.38-.51a1.43,1.43,0,0,1,.75-1c.37-.29,0-.67.62-.67a4.48,4.48,0,0,0,1.63-.21c.33-.17.25.17.79.63s1.21.83,1.25,1.38.5.25.58-.17.34-.67-.42-.88-1.66-1.21-1.16-1.3a3.88,3.88,0,0,1,2.33,1.26c.13.42.29,1.21.63,1.09s0,1,.46.92-.25-1.13.2-1.21,1.34,0,1.21-.38.45-1.13.45-1.26.68.13.34.38.21.29.5.21-.16-.5.29-.54.75.12.59.41,0,.42.62.59,1,1.17.25,1-1.32-.83-2-.5-1.63,0-1.3.59.84,1.25,1.25,1,.59.38.92.21.46-.42.46.38,0,1.42-.5,1.42a5,5,0,0,1-1.88-.21c-.25-.21-1.79-1-1.75-.46s-.5.51-1.08.34-2.17-.71-2.12-1.38-.3-1.26-1-1.05-1.5-.29-2.13,0a3.7,3.7,0,0,1-1.91.5c-.42-.12-.5-.37-.84,0s-1.54,1.26-1.46,1.72,0,.58-.79.88-1.08.79-1.46,1.63-.79,1-.54,1.59a1.4,1.4,0,0,1,0,1.5c-.33.63-.38.84-.17,1.09s.42.21.17.55,0,.54.54,1,.38,1,.75,1.63.71.34,1.25.8.67.71,1.25.33.88-.33,1.21-.16.58.12,1-.21,1.75-.63,2.12-.3.13.84.5.76,1-.17,1.25.25a1.17,1.17,0,0,1,0,1.17c-.21.5-.54,1-.17,1.21s1,.63,1,1.3,0,.88.25,1,.46.25.29.83-1.12,1.59-1,2.47.66,1.22.62,1.8,0,1.43.46,1.68a1,1,0,0,1,.46,1.34c-.25.66-.17.58.58.46s1.38-.13,1.75-.67,1.88-1.72,2-2a1.11,1.11,0,0,1,.5-.8c.33-.16.79-.63.75-1a2.15,2.15,0,0,1,.79-1.68,2.52,2.52,0,0,0,1-2.3,7.48,7.48,0,0,1,.46-3.22c.29-.38,1.83-1.63,2.12-3.06s.59-2.09.13-1.84-1.63.63-1.58.17.33-.75-.59-1.13-.37-1.26-.79-1.63-.12-.5-.21-.92a1.65,1.65,0,0,0-.62-1.22c-.5-.37-.42-1.17-.88-1.88s.71.08.71.38a3.73,3.73,0,0,0,.83,1.67c.38.34.38.29.42.75a2.48,2.48,0,0,0,.67,1.34c.41.55.5.55.5,1.09s.41,1.13.87.88A2.74,2.74,0,0,0,126,52.41c.12-.42.42-.13.5-.67s.67-.84.38-1.13-.67-1.51-.84-1.3-.41.55-.58.25-.13-.29-.42-.37.13-.34-.25-.72-.33-.58-.21-.79.5-.21.5.25.38,1.13.88,1,.29.46.79.58,1,0,1.13.5-.21,1.47.33,1.63.38,2.59.64,4.19c0-.58.06-1.15.06-1.74a23.7,23.7,0,0,0-6.94-16.79ZM104.26,33.7c.66-.19,1,0,1.26-.19s-.34-.26.26-.56a2.61,2.61,0,0,1,1.29-.48c1.08-.22.48-.41-.22-.37s-1-.48-2.15-.45-1.81,0-2.55,0,.22-.37-.63-.29c-.67.05-2.71.4-2.71.4-1.59.79-2.66.82-3,1.31s-.11.67.55.48.56-.19,1.26.11,1,.22.56.56-1,.48-.85,1-.45.71,0,.89a1.72,1.72,0,0,0,1.66-.3,3.12,3.12,0,0,1,1.71-1,4,4,0,0,0,1.55-.33,8.62,8.62,0,0,1,2-.3c.81-.11-.63-.34,0-.52Z" style="fill: #66b269"/>
    <path d="M178.3,29.49c-.78,4.21-1.44,4.87-5.65,5.65h0c4.21.78,4.87,1.44,5.65,5.65h0c.78-4.21,1.44-4.87,5.65-5.65h0c-4.21-.78-4.87-1.44-5.65-5.65h0Z" style="fill: #fff"/>
    <path d="M190.39,43.49c-.78,4.22-1.44,4.87-5.65,5.65h0c4.21.79,4.87,1.44,5.65,5.65h0c.78-4.21,1.44-4.86,5.65-5.65h0c-4.21-.78-4.87-1.43-5.65-5.65a0,0,0,0,0,0,0,0,0,0,0,0,0,0Z" style="fill: #fff"/>
    <path d="M197.78,60.41c-.78,4.21-1.43,4.87-5.65,5.65h0c4.22.78,4.87,1.44,5.65,5.65h0c.78-4.21,1.43-4.87,5.64-5.65a0,0,0,0,0,0,0h0c-4.21-.78-4.86-1.44-5.64-5.65h0Z" style="fill: #fff"/>
    <path d="M200.16,78.7c-.78,4.21-1.44,4.87-5.65,5.65,0,0,0,0,0,0a0,0,0,0,0,0,0c4.21.78,4.87,1.44,5.65,5.65a0,0,0,0,0,0,0h0c.78-4.21,1.44-4.87,5.65-5.65h0a0,0,0,0,0,0,0c-4.21-.78-4.87-1.44-5.65-5.65a0,0,0,0,0,0,0s0,0,0,0Z" style="fill: #fff"/>
    <path d="M31.84,29.49c.78,4.21,1.43,4.87,5.65,5.65h0c-4.22.78-4.87,1.44-5.65,5.65h0c-.78-4.21-1.43-4.87-5.64-5.65h0c4.21-.78,4.86-1.44,5.64-5.65h0Z" style="fill: #fff"/>
    <path d="M19.75,43.49c.78,4.22,1.43,4.87,5.65,5.65h0c-4.22.79-4.87,1.44-5.65,5.65h0c-.78-4.21-1.43-4.86-5.64-5.65h0c4.21-.78,4.86-1.43,5.64-5.65h0Z" style="fill: #fff"/>
    <path d="M12.36,60.41c.78,4.21,1.43,4.87,5.64,5.65h0a0,0,0,0,1,0,0c-4.21.78-4.86,1.44-5.64,5.65h0c-.78-4.21-1.43-4.87-5.65-5.65h0c4.22-.78,4.87-1.44,5.65-5.65h0Z" style="fill: #fff"/>
    <path d="M10,78.7c.78,4.21,1.44,4.87,5.65,5.65a0,0,0,0,1,0,0h0c-4.21.78-4.87,1.44-5.65,5.65h0a0,0,0,0,1,0,0c-.78-4.21-1.44-4.87-5.65-5.65a0,0,0,0,1,0,0s0,0,0,0c4.21-.78,4.87-1.44,5.65-5.65,0,0,0,0,0,0a0,0,0,0,1,0,0Z" style="fill: #fff"/>
  </g>
</svg>
